# xmcd
#
# Track frame offsets:
#	150
#	19675
#	42317
#	59204
#	77168
#	87119
#	103305
#	126620
#	144548
#	159057
#	174509
#	192887
#	213841
#	218679
#
# Disc length: 3114 seconds
#
# Revision: 1
# Processed by: cddbd v1.5.2PL0 Copyright (c) Steve Scherf et al.
# Submitted via: audiograbber 1.83.01
#
DISCID=c50c280e
DTITLE=Beth Williams - In This Old House
DYEAR=2001
DGENRE=
TTITLE0=Now
TTITLE1=In This Old House
TTITLE2=Ruby and John
TTITLE3=Voices
TTITLE4=O-D-I
TTITLE5=Mason Sunset
TTITLE6=This Farm
TTITLE7=A Ladder I Can Climb
TTITLE8=The Girl
TTITLE9=Big Bad Blues
TTITLE10=My God and I
TTITLE11=Wish You Well
TTITLE12=Extra 1
TTITLE13=Extra 2
EXTD=
EXTT0=
EXTT1=
EXTT2=
EXTT3=
EXTT4=
EXTT5=
EXTT6=
EXTT7=
EXTT8=
EXTT9=
EXTT10=
EXTT11=
EXTT12=
EXTT13=
PLAYORDER=
